<?xml version="1.0" encoding="utf-8"?>
<!-- Generator: Adobe Illustrator 25.3.1, SVG Export Plug-In . SVG Version: 6.00 Build 0)  -->
<svg version="1.1" id="Calque_1" xmlns="http://www.w3.org/2000/svg" xmlns:xlink="http://www.w3.org/1999/xlink" x="0px" y="0px"
	 viewBox="0 0 2354.4 744.9" style="enable-background:new 0 0 2354.4 744.9;" xml:space="preserve">
<style type="text/css">
	.st0{fill:#125756;}
	.st1{fill:none;}
	.st2{fill:#71C1B1;}
</style>
<g>
	<path class="st0" d="M367.6,221.5c-40.8-1-70.7-32.6-69.3-71.5c1.4-39.7,33.8-68.4,72.7-66.5c33.4,1.6,69.1,30.1,65.8,73.4
		C434,194.5,403.1,221.3,367.6,221.5z"/>
	<path class="st0" d="M648.9,173.7c10.6,0,17.6,4.4,21.1,13.4c3.6,9,1.4,16.8-5.4,23.6c-25.6,25.5-51.2,51.1-76.7,76.7
		c-6.5,6.5-13.9,10.4-23.3,8c-17.4-4.6-22.6-23.7-9.8-36.7c17.3-17.6,34.8-34.9,52.2-52.4c8.6-8.6,17.2-17.2,25.8-25.8
		C637.4,175.7,642.8,173.3,648.9,173.7z"/>
	<path class="st0" d="M85.7,173.7c6.2,0.1,11.4,1.8,15.7,6c26.5,26.2,53.1,52.4,79.6,78.6c6.6,6.5,9,14.3,6,23.1
		c-5.2,15.1-23.9,19.5-35.7,8c-17.8-17.3-35.1-35-52.7-52.6c-9.1-9.1-18.3-18-27.2-27.2c-11.2-11.7-6.6-30.5,8.3-35.2
		C81.8,173.8,83.9,173.9,85.7,173.7z"/>
	<g>
		<path class="st1" d="M410.2,341c-29.6-39-87.1-75.4-109.1-4.8c-0.3,1.5-0.7,3-0.9,4.5c35.2,0,70.4,0,105.6,0
			C407.2,340.7,408.7,340.7,410.2,341z"/>
		<path class="st0" d="M410.2,341c-1.4-0.2-2.9-0.3-4.5-0.3c-35.2,0-70.4,0-105.6,0c-2.3,11.3-3.1,20.9-2.5,29.6c43,0,86,0,129,0.1
			c-0.5-1.4-1-2.8-1.6-4.2C421.9,358.4,416.7,349.6,410.2,341z"/>
		<g>
			<path class="st1" d="M430.3,393.2c0.3-7.2-0.8-14.6-3.7-22.8c-0.5-1.4-1-2.8-1.6-4.2c-3.1-7.8-8.3-16.6-14.9-25.2
				c-29.6-39-87.1-75.4-109.1-4.8c-0.3,1.5-0.7,3-0.9,4.5c-2.3,11.3-3.1,20.9-2.5,29.6c0.6,8.1,2.4,15.5,5.6,22.9
				c41.6,0,83.2,0,124.8,0C428.8,393.2,429.5,393.2,430.3,393.2z"/>
			<path class="st0" d="M428,393.2c-41.6,0-83.2,0-124.8,0c4,9.3,10.2,18.6,18.7,29.2c0,0.1,0.1,0.1,0.1,0.2
				c32.9,0.1,65.7,0.1,98.6,0.2c5.9-10.4,9.2-19.8,9.6-29.6C429.5,393.2,428.8,393.2,428,393.2z"/>
		</g>
	</g>
</g>
<g>
	<g>
		<path class="st2" d="M620,123.2c-8.7-6.9-20.4-6.1-29.4,2.4c-6.8,6.4-13.4,13-19.9,19.7c-22.8,23.8-48.1,44.3-77.7,59.4
			c-19.4,9.9-39.8,17.2-59.9,25.4c-14.7,6-29.3,12.4-43,20.5c-0.9,0.5-1.5,1-1.9,1.4c5.4,3,10.7,6.2,15.9,9.6
			c35.7,21.2,63.5,55.3,71.8,93.5c0.3-6.4,0.6-12.7,1.5-19c3.1-21.7,11.9-40.8,25.4-58c12.6-16,27.9-29.5,42.1-44
			c25.3-25.8,50.8-51.4,76.1-77.2C631.4,146.2,630.9,131.9,620,123.2z"/>
	</g>
</g>
<path class="st0" d="M305.1,559.1c-4.9,7.7-8.8,15.7-11.8,23.9c49.9,0,99.8,0,149.6,0.1c-4.6-13.4-11.1-21.1-11.4-21.4
	c-2.1-2.9-4.3-5.6-6.5-8.3c-38.4,0-76.9,0-115.3,0c-0.4,0.5-0.8,1-1.1,1.4C307.2,556.5,306,557.6,305.1,559.1z"/>
<g>
	<g>
		<path class="st0" d="M447.4,606.2c-1.2,0-2.3-0.1-3.5-0.1c-52.2,0-104.3,0-156.5,0c-1.5,9.6-1.8,19.5-1,29.6
			c53.7,0,107.5,0,161.2,0.1C448.1,626.4,448.2,616.1,447.4,606.2z"/>
		<g>
			<path class="st2" d="M324.5,493.2c-34.1,21.8-57.3,51.7-61.9,95.2c-3.1,29.7,4.6,56.3,24.4,79c1,1.1,2.1,2.2,3.3,3.2
				c1.2,1,1.2,1,3.8,2.4c-4-11.3-6.3-22.5-7.5-34.1c-0.1-1.1-0.2-2.1-0.3-3.1c-0.8-10.1-0.4-20,1-29.6c1.2-7.9,3.2-15.6,5.9-23.1
				c3-8.2,6.9-16.2,11.8-23.9c0.9-1.5,2.1-2.7,3.5-4.3c0.3-0.4,0.7-0.9,1.1-1.4c5.4-6.5,17.1-17.4,17.8-18c9-7.7,18.8-14.2,29-20.2
				C345.9,507.8,335.1,500.6,324.5,493.2z"/>
		</g>
	</g>
	<g>
		<path class="st2" d="M471.3,569.5c-17.4-67.7-117.9-107.8-149.3-146.9c0-0.1-0.1-0.1-0.1-0.2c-8.5-10.7-14.7-19.9-18.7-29.2
			c-3.2-7.3-5-14.7-5.6-22.9c-0.6-8.7,0.3-18.3,2.5-29.6c0.3-1.5,0.6-3,0.9-4.5c22-70.6,79.5-34.2,109.1,4.8
			c6.6,8.7,11.8,17.5,14.9,25.2c0.6,1.4,1.1,2.8,1.6,4.2c2.8,8.2,4,15.6,3.7,22.8c-0.5,9.8-3.8,19.2-9.6,29.6
			c-4.3,7.6-9.9,15.7-16.8,25c-4,5.4-13.2,12.8-13.2,12.8c8.3,5.4,16.6,12.3,25.8,16.5c3.6,1.7,3.6,1.7,5.4-0.1
			c75.1-73.9,35.4-163.4-33.7-204.6c-72.4-46.9-163.7-58.4-222-127c-12.8-12.3-30.3-36.2-48.6-18.8c-9.2,8.9-9,22.2,0.7,31.9
			c38.3,39.4,78.8,76.7,116,117.2c49.1,51.7,7.1,121.8,60.4,173.2c39.4,39.5,94.2,61.5,130.3,104.5c2.3,2.7,4.4,5.4,6.5,8.3
			c0.2,0.3,6.8,8,11.4,21.4c1.8,5.1,3.2,11.1,4,17.8c0.2,1.7,0.4,3.5,0.5,5.3c0.8,10,0.7,20.3,0.2,29.6c-1,20.3-3.6,36.4-3,35.7
			c11.9-11.9,20.9-22.9,26.2-35.7c0.6-1.5,1.2-3.1,1.8-4.7C478.2,615.1,478.2,596,471.3,569.5z"/>
	</g>
</g>
<g>
	<path class="st2" d="M856.9,151.6c-10.7,0-19.9-3.9-27.8-11.8c-7.8-7.8-11.8-17.1-11.8-27.8c0-10.7,3.9-20,11.8-28
		c7.8-8,17.1-12,27.8-12c11,0,20.4,4,28.2,12c7.8,8,11.8,17.3,11.8,28c0,10.7-3.9,19.9-11.8,27.8
		C877.4,147.7,867.9,151.6,856.9,151.6z M824.9,431.6v-250h64.5v250H824.9z"/>
	<path class="st2" d="M1012.9,224.6c6-16,15.9-28,29.8-36c13.8-8,29.2-12,46.2-12v72c-19.7-2.3-37.2,1.7-52.8,12
		c-15.5,10.3-23.2,27.5-23.2,51.5v119.5h-64.5v-250h64.5V224.6z"/>
	<path class="st2" d="M1235.9,438.6c-37.7,0-69.1-12.7-94.2-38c-25.2-25.3-37.8-56.7-37.8-94c0-37.3,12.6-68.7,37.8-94
		c25.2-25.3,56.6-38,94.2-38c24.3,0,46.5,5.8,66.5,17.5c20,11.7,35.2,27.3,45.5,47l-55.5,32.5c-5-10.3-12.6-18.5-22.8-24.5
		c-10.2-6-21.6-9-34.2-9c-19.3,0-35.3,6.4-48,19.2c-12.7,12.8-19,29.2-19,49.2c0,19.7,6.3,35.9,19,48.8c12.7,12.8,28.7,19.2,48,19.2
		c13,0,24.6-2.9,34.8-8.8c10.2-5.8,17.8-13.9,22.8-24.2l56,32c-11,19.7-26.5,35.4-46.5,47.2S1260.3,438.6,1235.9,438.6z"/>
	<path class="st2" d="M1661.4,174.6c28.7,0,51.6,9.3,68.8,28c17.2,18.7,25.8,43.7,25.8,75v154h-64.5V282.1c0-15-3.7-26.7-11-35
		c-7.3-8.3-17.7-12.5-31-12.5c-14.7,0-26.1,4.8-34.2,14.5c-8.2,9.7-12.2,23.7-12.2,42v140.5h-64.5V282.1c0-15-3.7-26.7-11-35
		c-7.3-8.3-17.7-12.5-31-12.5c-14.3,0-25.8,4.8-34.2,14.5c-8.5,9.7-12.8,23.7-12.8,42v140.5h-64.5v-250h64.5v26.5
		c15-22.3,38.2-33.5,69.5-33.5c30.7,0,53.3,12,68,36C1603.6,186.6,1628.4,174.6,1661.4,174.6z"/>
</g>
<g>
	<path class="st0" d="M832.8,493.2h9.3v70h-9.3V493.2z"/>
	<path class="st0" d="M881.1,511.9c5.9,0,10.6,1.8,14.1,5.5c3.5,3.7,5.3,8.7,5.3,15v30.7h-8.7V533c0-4.1-1.1-7.2-3.3-9.5
		c-2.2-2.2-5.2-3.3-9.1-3.3c-4.3,0-7.8,1.3-10.5,4c-2.7,2.7-4,6.9-4,12.5v26.5h-8.7v-50h8.7v7.2
		C868.5,514.7,873.9,511.9,881.1,511.9z"/>
	<path class="st0" d="M920.1,526.5c0,1.9,1,3.4,2.9,4.5c2,1.1,4.3,2.1,7,2.9c2.7,0.8,5.4,1.6,8.2,2.4c2.7,0.8,5.1,2.3,7,4.5
		s2.9,5.1,2.9,8.5c0,4.5-1.8,8.2-5.2,10.9c-3.5,2.7-8,4.1-13.4,4.1c-4.9,0-9-1.1-12.5-3.2c-3.5-2.1-5.9-5-7.4-8.5l7.5-4.3
		c0.8,2.4,2.3,4.3,4.5,5.7s4.8,2.1,7.9,2.1c2.9,0,5.2-0.5,7.1-1.6c1.9-1.1,2.8-2.8,2.8-5.1c0-1.9-1-3.5-2.9-4.6
		c-1.9-1.2-4.3-2.2-7-3c-2.7-0.8-5.5-1.6-8.2-2.5c-2.7-0.8-5.1-2.3-7-4.4c-1.9-2.1-2.9-4.9-2.9-8.2c0-4.3,1.7-7.9,5-10.7
		c3.4-2.8,7.6-4.2,12.7-4.2c4.1,0,7.7,0.9,10.8,2.8c3.2,1.8,5.6,4.4,7.2,7.6l-7.3,4.1c-1.8-4.3-5.4-6.4-10.7-6.4
		c-2.5,0-4.6,0.6-6.3,1.7C921,522.8,920.1,524.5,920.1,526.5z"/>
	<path class="st0" d="M983.6,521.6h-13.3v27.1c0,2.5,0.5,4.2,1.5,5.2c1,1,2.5,1.6,4.5,1.6c2,0,4.5,0,7.4-0.1v7.8
		c-7.6,1-13.2,0.4-16.7-1.8c-3.5-2.2-5.3-6.5-5.3-12.7v-27.1h-9.9v-8.4h9.9v-11.4l8.7-2.6v14h13.3V521.6z"/>
	<path class="st0" d="M998.3,504.1c-1.7,0-3.1-0.6-4.2-1.7c-1.1-1.1-1.7-2.5-1.7-4.1c0-1.6,0.6-3,1.7-4.1c1.1-1.2,2.5-1.8,4.2-1.8
		c1.6,0,3,0.6,4.1,1.8c1.1,1.2,1.7,2.5,1.7,4.1c0,1.6-0.6,3-1.7,4.1C1001.3,503.5,999.9,504.1,998.3,504.1z M993.9,563.2v-50h8.7v50
		H993.9z"/>
	<path class="st0" d="M1043.1,521.6h-13.3v27.1c0,2.5,0.5,4.2,1.5,5.2c1,1,2.5,1.6,4.5,1.6c2,0,4.5,0,7.4-0.1v7.8
		c-7.6,1-13.2,0.4-16.7-1.8c-3.5-2.2-5.3-6.5-5.3-12.7v-27.1h-9.9v-8.4h9.9v-11.4l8.7-2.6v14h13.3V521.6z"/>
	<path class="st0" d="M1088.2,513.2h8.7v50h-8.7V556c-3.5,5.7-8.9,8.5-16.2,8.5c-5.9,0-10.6-1.8-14.1-5.5c-3.5-3.7-5.3-8.7-5.3-15
		v-30.7h8.7v30.2c0,4.1,1.1,7.2,3.3,9.5c2.2,2.2,5.2,3.3,9.1,3.3c4.3,0,7.8-1.3,10.5-4c2.7-2.7,4-6.9,4-12.5V513.2z"/>
	<path class="st0" d="M1137.3,521.6H1124v27.1c0,2.5,0.5,4.2,1.5,5.2c1,1,2.5,1.6,4.5,1.6c2,0,4.5,0,7.4-0.1v7.8
		c-7.6,1-13.2,0.4-16.7-1.8c-3.5-2.2-5.3-6.5-5.3-12.7v-27.1h-9.9v-8.4h9.9v-11.4l8.7-2.6v14h13.3V521.6z"/>
	<path class="st2" d="M1214.3,493.2h8.7v70h-8.7v-8.6c-4.3,6.6-10.6,9.9-18.9,9.9c-7,0-13-2.5-17.9-7.6c-4.9-5.1-7.4-11.3-7.4-18.7
		c0-7.3,2.5-13.5,7.4-18.7c4.9-5.1,10.9-7.6,17.9-7.6c8.3,0,14.6,3.3,18.9,9.9V493.2z M1196.5,556.1c5.1,0,9.3-1.7,12.7-5.2
		c3.4-3.4,5.1-7.7,5.1-12.8c0-5.1-1.7-9.3-5.1-12.8c-3.4-3.4-7.6-5.2-12.7-5.2c-5,0-9.2,1.7-12.6,5.2c-3.4,3.4-5.1,7.7-5.1,12.8
		c0,5.1,1.7,9.3,5.1,12.8C1187.3,554.4,1191.5,556.1,1196.5,556.1z"/>
	<path class="st2" d="M1242.3,542.2c0.9,4.5,2.9,7.9,6.1,10.4c3.2,2.5,7.2,3.7,12,3.7c6.6,0,11.4-2.4,14.4-7.3l7.4,4.2
		c-4.9,7.5-12.2,11.3-22,11.3c-7.9,0-14.4-2.5-19.3-7.5c-5-5-7.5-11.2-7.5-18.8c0-7.5,2.4-13.8,7.3-18.8c4.9-5,11.2-7.5,18.9-7.5
		c7.3,0,13.3,2.6,18,7.8c4.6,5.2,7,11.4,7,18.6c0,1.3-0.1,2.6-0.3,3.9H1242.3z M1259.6,520.1c-4.7,0-8.5,1.3-11.6,3.9
		c-3.1,2.6-5,6.2-5.7,10.6h33.4c-0.7-4.7-2.6-8.3-5.6-10.8C1267.1,521.3,1263.6,520.1,1259.6,520.1z"/>
	<path class="st0" d="M1361.9,563.2l-15.7-26.8h-16.5v26.8h-9.3v-70h28c6,0,11.1,2.1,15.4,6.3c4.3,4.2,6.4,9.4,6.4,15.4
		c0,4.5-1.3,8.7-4,12.4c-2.7,3.7-6.2,6.4-10.5,7.9l16.5,28H1361.9z M1329.7,501.9V528h18.7c3.5,0,6.4-1.3,8.8-3.8
		c2.4-2.6,3.7-5.7,3.7-9.2c0-3.6-1.2-6.7-3.7-9.2c-2.4-2.5-5.4-3.8-8.8-3.8H1329.7z"/>
	<path class="st0" d="M1384.2,542.2c0.9,4.5,2.9,7.9,6.1,10.4c3.2,2.5,7.2,3.7,12,3.7c6.6,0,11.4-2.4,14.4-7.3l7.4,4.2
		c-4.9,7.5-12.2,11.3-22,11.3c-7.9,0-14.4-2.5-19.3-7.5c-5-5-7.5-11.2-7.5-18.8c0-7.5,2.4-13.8,7.3-18.8c4.9-5,11.2-7.5,18.9-7.5
		c7.3,0,13.3,2.6,18,7.8c4.6,5.2,7,11.4,7,18.6c0,1.3-0.1,2.6-0.3,3.9H1384.2z M1401.5,520.1c-4.7,0-8.5,1.3-11.6,3.9
		c-3.1,2.6-5,6.2-5.7,10.6h33.4c-0.7-4.7-2.6-8.3-5.6-10.8C1409,521.3,1405.5,520.1,1401.5,520.1z"/>
	<path class="st0" d="M1459.8,564.5c-7.5,0-13.8-2.5-18.8-7.5c-5-5-7.5-11.3-7.5-18.8c0-7.5,2.5-13.7,7.5-18.8
		c5-5,11.3-7.5,18.8-7.5c4.9,0,9.4,1.2,13.3,3.5c3.9,2.4,6.9,5.5,8.8,9.5l-7.3,4.2c-1.3-2.7-3.2-4.8-5.9-6.4c-2.6-1.6-5.6-2.4-9-2.4
		c-5,0-9.2,1.7-12.5,5.1c-3.4,3.4-5,7.6-5,12.7c0,5,1.7,9.2,5,12.6c3.4,3.4,7.5,5.1,12.5,5.1c3.3,0,6.3-0.8,9-2.4
		c2.7-1.6,4.7-3.7,6.1-6.3l7.4,4.3c-2.1,3.9-5.2,7.1-9.2,9.5S1464.7,564.5,1459.8,564.5z"/>
	<path class="st0" d="M1515.8,511.9c5.9,0,10.6,1.8,14.1,5.5c3.5,3.7,5.3,8.7,5.3,15v30.7h-8.7V533c0-4.1-1.1-7.2-3.3-9.5
		c-2.2-2.2-5.2-3.3-9.1-3.3c-4.3,0-7.8,1.3-10.5,4c-2.7,2.7-4,6.9-4,12.5v26.5h-8.7v-70h8.7v27.2
		C1503.2,514.7,1508.6,511.9,1515.8,511.9z"/>
	<path class="st0" d="M1553.4,542.2c0.9,4.5,2.9,7.9,6.1,10.4c3.2,2.5,7.2,3.7,12,3.7c6.6,0,11.4-2.4,14.4-7.3l7.4,4.2
		c-4.9,7.5-12.2,11.3-22,11.3c-7.9,0-14.4-2.5-19.3-7.5c-5-5-7.5-11.2-7.5-18.8c0-7.5,2.4-13.8,7.3-18.8c4.9-5,11.2-7.5,18.9-7.5
		c7.3,0,13.3,2.6,18,7.8c4.6,5.2,7,11.4,7,18.6c0,1.3-0.1,2.6-0.3,3.9H1553.4z M1570.7,520.1c-4.7,0-8.5,1.3-11.6,3.9
		c-3.1,2.6-5,6.2-5.7,10.6h33.4c-0.7-4.7-2.6-8.3-5.6-10.8C1578.2,521.3,1574.7,520.1,1570.7,520.1z"/>
	<path class="st0" d="M1614.3,521.6c2.9-6.2,8.1-9.3,15.6-9.3v9.1c-4.3-0.2-7.9,0.9-11,3.4c-3.1,2.5-4.6,6.4-4.6,11.9v26.5h-8.7v-50
		h8.7V521.6z"/>
	<path class="st0" d="M1659.2,564.5c-7.5,0-13.8-2.5-18.8-7.5c-5-5-7.5-11.3-7.5-18.8c0-7.5,2.5-13.7,7.5-18.8
		c5-5,11.3-7.5,18.8-7.5c4.9,0,9.4,1.2,13.3,3.5c3.9,2.4,6.9,5.5,8.8,9.5l-7.3,4.2c-1.3-2.7-3.2-4.8-5.9-6.4c-2.6-1.6-5.6-2.4-9-2.4
		c-5,0-9.2,1.7-12.5,5.1c-3.4,3.4-5,7.6-5,12.7c0,5,1.7,9.2,5,12.6c3.4,3.4,7.5,5.1,12.5,5.1c3.3,0,6.3-0.8,9-2.4
		c2.7-1.6,4.7-3.7,6.1-6.3l7.4,4.3c-2.1,3.9-5.2,7.1-9.2,9.5S1664.1,564.5,1659.2,564.5z"/>
	<path class="st0" d="M1715.2,511.9c5.9,0,10.6,1.8,14.1,5.5c3.5,3.7,5.3,8.7,5.3,15v30.7h-8.7V533c0-4.1-1.1-7.2-3.3-9.5
		c-2.2-2.2-5.2-3.3-9.1-3.3c-4.3,0-7.8,1.3-10.5,4c-2.7,2.7-4,6.9-4,12.5v26.5h-8.7v-70h8.7v27.2
		C1702.6,514.7,1708,511.9,1715.2,511.9z"/>
	<path class="st0" d="M1752.8,542.2c0.9,4.5,2.9,7.9,6.1,10.4c3.2,2.5,7.2,3.7,12,3.7c6.6,0,11.4-2.4,14.4-7.3l7.4,4.2
		c-4.9,7.5-12.2,11.3-22,11.3c-7.9,0-14.4-2.5-19.3-7.5c-5-5-7.5-11.2-7.5-18.8c0-7.5,2.4-13.8,7.3-18.8c4.9-5,11.2-7.5,18.9-7.5
		c7.3,0,13.3,2.6,18,7.8c4.6,5.2,7,11.4,7,18.6c0,1.3-0.1,2.6-0.3,3.9H1752.8z M1770.1,520.1c-4.7,0-8.5,1.3-11.6,3.9
		c-3.1,2.6-5,6.2-5.7,10.6h33.4c-0.7-4.7-2.6-8.3-5.6-10.8C1777.6,521.3,1774.1,520.1,1770.1,520.1z"/>
	<path class="st2" d="M838,636.2c0.9,4.5,2.9,7.9,6.1,10.4c3.2,2.5,7.2,3.7,12,3.7c6.6,0,11.4-2.4,14.4-7.3l7.4,4.2
		c-4.9,7.5-12.2,11.3-22,11.3c-7.9,0-14.4-2.5-19.3-7.5c-5-5-7.5-11.2-7.5-18.8c0-7.5,2.4-13.8,7.3-18.8c4.9-5,11.2-7.5,18.9-7.5
		c7.3,0,13.3,2.6,18,7.8c4.6,5.2,7,11.4,7,18.6c0,1.3-0.1,2.6-0.3,3.9H838z M855.3,614.1c-4.7,0-8.5,1.3-11.6,3.9
		c-3.1,2.6-5,6.2-5.7,10.6h33.4c-0.7-4.7-2.6-8.3-5.6-10.8C862.8,615.3,859.3,614.1,855.3,614.1z"/>
	<path class="st2" d="M915.1,605.9c5.9,0,10.6,1.8,14.1,5.5c3.5,3.7,5.3,8.7,5.3,15v30.7h-8.7V627c0-4.1-1.1-7.2-3.3-9.5
		c-2.2-2.2-5.2-3.3-9.1-3.3c-4.3,0-7.8,1.3-10.5,4c-2.7,2.7-4,6.9-4,12.5v26.5h-8.7v-50h8.7v7.2
		C902.5,608.7,907.9,605.9,915.1,605.9z"/>
	<path class="st0" d="M1005.4,658.5c-10.6,0-19.4-3.5-26.2-10.5c-6.9-7-10.4-15.6-10.4-25.8s3.5-18.8,10.4-25.8
		c6.9-7,15.6-10.5,26.2-10.5c6.4,0,12.3,1.5,17.6,4.6c5.4,3.1,9.5,7.2,12.5,12.4l-8.1,4.7c-2-3.9-5-7-9-9.2c-4-2.3-8.3-3.5-13.1-3.5
		c-8.1,0-14.7,2.6-19.8,7.8c-5.1,5.2-7.7,11.7-7.7,19.5c0,7.7,2.5,14.2,7.7,19.4c5.1,5.2,11.7,7.8,19.8,7.8c4.8,0,9.2-1.2,13.1-3.5
		c4-2.3,7-5.3,9-9.2l8.1,4.6c-2.9,5.2-7.1,9.3-12.5,12.5C1017.7,656.9,1011.8,658.5,1005.4,658.5z"/>
	<path class="st0" d="M1086.4,607.2h8.7v50h-8.7v-8.6c-4.3,6.6-10.6,9.9-18.9,9.9c-7,0-13-2.5-17.9-7.6c-4.9-5.1-7.4-11.3-7.4-18.7
		c0-7.3,2.5-13.5,7.4-18.7c4.9-5.1,10.9-7.6,17.9-7.6c8.3,0,14.6,3.3,18.9,9.9V607.2z M1068.6,650.1c5.1,0,9.3-1.7,12.7-5.2
		c3.4-3.4,5.1-7.7,5.1-12.8c0-5.1-1.7-9.3-5.1-12.8c-3.4-3.4-7.6-5.2-12.7-5.2c-5,0-9.2,1.7-12.6,5.2c-3.4,3.4-5.1,7.7-5.1,12.8
		c0,5.1,1.7,9.3,5.1,12.8C1059.4,648.4,1063.6,650.1,1068.6,650.1z"/>
	<path class="st0" d="M1133.2,605.9c5.9,0,10.6,1.8,14.1,5.5c3.5,3.7,5.3,8.7,5.3,15v30.7h-8.7V627c0-4.1-1.1-7.2-3.3-9.5
		c-2.2-2.2-5.2-3.3-9.1-3.3c-4.3,0-7.8,1.3-10.5,4c-2.7,2.7-4,6.9-4,12.5v26.5h-8.7v-50h8.7v7.2
		C1120.6,608.7,1126,605.9,1133.2,605.9z"/>
	<path class="st0" d="M1188.2,658.5c-7.5,0-13.8-2.5-18.8-7.5c-5-5-7.5-11.3-7.5-18.8c0-7.5,2.5-13.7,7.5-18.8
		c5-5,11.3-7.5,18.8-7.5c4.9,0,9.4,1.2,13.3,3.5c3.9,2.4,6.9,5.5,8.8,9.5l-7.3,4.2c-1.3-2.7-3.2-4.8-5.9-6.4c-2.6-1.6-5.6-2.4-9-2.4
		c-5,0-9.2,1.7-12.5,5.1c-3.4,3.4-5,7.6-5,12.7c0,5,1.7,9.2,5,12.6c3.4,3.4,7.5,5.1,12.5,5.1c3.3,0,6.3-0.8,9-2.4
		c2.7-1.6,4.7-3.7,6.1-6.3l7.4,4.3c-2.1,3.9-5.2,7.1-9.2,9.5S1193.1,658.5,1188.2,658.5z"/>
	<path class="st0" d="M1224.7,636.2c0.9,4.5,2.9,7.9,6.1,10.4c3.2,2.5,7.2,3.7,12,3.7c6.6,0,11.4-2.4,14.4-7.3l7.4,4.2
		c-4.9,7.5-12.2,11.3-22,11.3c-7.9,0-14.4-2.5-19.3-7.5c-5-5-7.5-11.2-7.5-18.8c0-7.5,2.4-13.8,7.3-18.8c4.9-5,11.2-7.5,18.9-7.5
		c7.3,0,13.3,2.6,18,7.8c4.6,5.2,7,11.4,7,18.6c0,1.3-0.1,2.6-0.3,3.9H1224.7z M1242,614.1c-4.7,0-8.5,1.3-11.6,3.9
		c-3.1,2.6-5,6.2-5.7,10.6h33.4c-0.7-4.7-2.6-8.3-5.6-10.8C1249.5,615.3,1246,614.1,1242,614.1z M1253.9,587.1l-10.1,13.2h-8.4
		l8-13.2H1253.9z"/>
	<path class="st0" d="M1285.6,615.6c2.9-6.2,8.1-9.3,15.6-9.3v9.1c-4.3-0.2-7.9,0.9-11,3.4c-3.1,2.5-4.6,6.4-4.6,11.9v26.5h-8.7v-50
		h8.7V615.6z"/>
	<path class="st0" d="M1349.2,650.9c-5.1,5.1-11.4,7.6-18.7,7.6c-7.3,0-13.5-2.5-18.6-7.6c-5.1-5.1-7.7-11.3-7.7-18.7
		s2.5-13.6,7.7-18.7c5.1-5.1,11.3-7.6,18.6-7.6c7.3,0,13.6,2.5,18.7,7.6c5.1,5.1,7.7,11.3,7.7,18.7S1354.4,645.8,1349.2,650.9z
		 M1330.5,650c5,0,9.2-1.7,12.6-5.1c3.4-3.4,5.1-7.6,5.1-12.7c0-5.1-1.7-9.3-5.1-12.7c-3.4-3.4-7.6-5.1-12.6-5.1
		c-4.9,0-9.1,1.7-12.5,5.1c-3.4,3.4-5.1,7.6-5.1,12.7c0,5.1,1.7,9.3,5.1,12.7C1321.4,648.3,1325.6,650,1330.5,650z"/>
	<path class="st0" d="M1367.2,657.2v-73h8.7v73H1367.2z"/>
	<path class="st0" d="M1431.4,650.9c-5.1,5.1-11.4,7.6-18.7,7.6c-7.3,0-13.5-2.5-18.6-7.6c-5.1-5.1-7.7-11.3-7.7-18.7
		s2.5-13.6,7.7-18.7c5.1-5.1,11.3-7.6,18.6-7.6c7.3,0,13.6,2.5,18.7,7.6c5.1,5.1,7.7,11.3,7.7,18.7S1436.6,645.8,1431.4,650.9z
		 M1412.7,650c5,0,9.2-1.7,12.6-5.1c3.4-3.4,5.1-7.6,5.1-12.7c0-5.1-1.7-9.3-5.1-12.7c-3.4-3.4-7.6-5.1-12.6-5.1
		c-4.9,0-9.1,1.7-12.5,5.1c-3.4,3.4-5.1,7.6-5.1,12.7c0,5.1,1.7,9.3,5.1,12.7C1403.6,648.3,1407.8,650,1412.7,650z"/>
	<path class="st0" d="M1490.9,607.2h8.6v47.9c0,7.4-2.5,13.1-7.5,17.2c-5,4.1-11,6.1-18,6.1c-5.6,0-10.4-1-14.5-3.1
		c-4.1-2.1-7.1-5.1-9.2-9.1l7.6-4.3c2.7,5.6,8.2,8.4,16.3,8.4c5.2,0,9.3-1.4,12.2-4.1c3-2.7,4.4-6.5,4.4-11.2V648
		c-4.4,6.7-10.7,10-18.8,10c-7.1,0-13.2-2.5-18.1-7.6c-4.9-5.1-7.4-11.2-7.4-18.5c0-7.3,2.5-13.4,7.4-18.5c4.9-5,11-7.5,18.1-7.5
		c8.2,0,14.5,3.3,18.8,9.9V607.2z M1460.4,644.6c3.4,3.4,7.6,5.1,12.7,5.1c5.1,0,9.3-1.7,12.7-5.1c3.4-3.4,5.1-7.6,5.1-12.7
		c0-5-1.7-9.2-5.1-12.6c-3.4-3.4-7.6-5.1-12.7-5.1c-5.1,0-9.3,1.7-12.7,5.1c-3.4,3.4-5.1,7.6-5.1,12.6
		C1455.3,637,1457,641.2,1460.4,644.6z"/>
	<path class="st0" d="M1517.1,598.1c-1.7,0-3.1-0.6-4.2-1.7c-1.1-1.1-1.7-2.5-1.7-4.1c0-1.6,0.6-3,1.7-4.1c1.1-1.2,2.5-1.8,4.2-1.8
		c1.6,0,3,0.6,4.1,1.8c1.1,1.2,1.7,2.5,1.7,4.1c0,1.6-0.6,3-1.7,4.1C1520.1,597.5,1518.7,598.1,1517.1,598.1z M1512.7,657.2v-50h8.7
		v50H1512.7z"/>
	<path class="st0" d="M1540.8,636.2c0.9,4.5,2.9,7.9,6.1,10.4c3.2,2.5,7.2,3.7,12,3.7c6.6,0,11.4-2.4,14.4-7.3l7.4,4.2
		c-4.9,7.5-12.2,11.3-22,11.3c-7.9,0-14.4-2.5-19.3-7.5c-5-5-7.5-11.2-7.5-18.8c0-7.5,2.4-13.8,7.3-18.8c4.9-5,11.2-7.5,18.9-7.5
		c7.3,0,13.3,2.6,18,7.8c4.6,5.2,7,11.4,7,18.6c0,1.3-0.1,2.6-0.3,3.9H1540.8z M1558.1,614.1c-4.7,0-8.5,1.3-11.6,3.9
		c-3.1,2.6-5,6.2-5.7,10.6h33.4c-0.7-4.7-2.6-8.3-5.6-10.8C1565.6,615.3,1562.1,614.1,1558.1,614.1z"/>
	<path class="st2" d="M1659.4,587.2h8.7v70h-8.7v-8.6c-4.3,6.6-10.6,9.9-18.9,9.9c-7,0-13-2.5-17.9-7.6c-4.9-5.1-7.4-11.3-7.4-18.7
		c0-7.3,2.5-13.5,7.4-18.7c4.9-5.1,10.9-7.6,17.9-7.6c8.3,0,14.6,3.3,18.9,9.9V587.2z M1641.6,650.1c5.1,0,9.3-1.7,12.7-5.2
		c3.4-3.4,5.1-7.7,5.1-12.8c0-5.1-1.7-9.3-5.1-12.8c-3.4-3.4-7.6-5.2-12.7-5.2c-5,0-9.2,1.7-12.6,5.2c-3.4,3.4-5.1,7.7-5.1,12.8
		c0,5.1,1.7,9.3,5.1,12.8C1632.4,648.4,1636.6,650.1,1641.6,650.1z"/>
	<path class="st2" d="M1687.4,636.2c0.9,4.5,2.9,7.9,6.1,10.4c3.2,2.5,7.2,3.7,12,3.7c6.6,0,11.4-2.4,14.4-7.3l7.4,4.2
		c-4.9,7.5-12.2,11.3-22,11.3c-7.9,0-14.4-2.5-19.3-7.5c-5-5-7.5-11.2-7.5-18.8c0-7.5,2.4-13.8,7.3-18.8c4.9-5,11.2-7.5,18.9-7.5
		c7.3,0,13.3,2.6,18,7.8c4.6,5.2,7,11.4,7,18.6c0,1.3-0.1,2.6-0.3,3.9H1687.4z M1704.7,614.1c-4.7,0-8.5,1.3-11.6,3.9
		c-3.1,2.6-5,6.2-5.7,10.6h33.4c-0.7-4.7-2.6-8.3-5.6-10.8C1712.2,615.3,1708.7,614.1,1704.7,614.1z"/>
	<path class="st0" d="M1831,587.2v70h-9.2v-54.7l-22.9,38.1l-1.1,0l-23-38.1v54.7h-9.3v-70h10.5l22.4,37.2l22.2-37.2H1831z"/>
	<path class="st0" d="M1887.3,650.9c-5.1,5.1-11.4,7.6-18.7,7.6c-7.3,0-13.5-2.5-18.6-7.6c-5.1-5.1-7.7-11.3-7.7-18.7
		s2.5-13.6,7.7-18.7c5.1-5.1,11.3-7.6,18.6-7.6c7.3,0,13.6,2.5,18.7,7.6c5.1,5.1,7.7,11.3,7.7,18.7S1892.5,645.8,1887.3,650.9z
		 M1868.6,650c5,0,9.2-1.7,12.6-5.1c3.4-3.4,5.1-7.6,5.1-12.7c0-5.1-1.7-9.3-5.1-12.7c-3.4-3.4-7.6-5.1-12.6-5.1
		c-4.9,0-9.1,1.7-12.5,5.1c-3.4,3.4-5.1,7.6-5.1,12.7c0,5.1,1.7,9.3,5.1,12.7C1859.5,648.3,1863.7,650,1868.6,650z"/>
	<path class="st0" d="M1930.2,605.9c5.9,0,10.6,1.8,14.1,5.5c3.5,3.7,5.3,8.7,5.3,15v30.7h-8.7V627c0-4.1-1.1-7.2-3.3-9.5
		c-2.2-2.2-5.2-3.3-9.1-3.3c-4.3,0-7.8,1.3-10.5,4c-2.7,2.7-4,6.9-4,12.5v26.5h-8.7v-50h8.7v7.2
		C1917.6,608.7,1923,605.9,1930.2,605.9z"/>
	<path class="st0" d="M1988.9,615.6h-13.3v27.1c0,2.5,0.5,4.2,1.5,5.2c1,1,2.5,1.6,4.5,1.6c2,0,4.5,0,7.4-0.1v7.8
		c-7.6,1-13.2,0.4-16.7-1.8c-3.5-2.2-5.3-6.5-5.3-12.7v-27.1h-9.9v-8.4h9.9v-11.4l8.7-2.6v14h13.3V615.6z"/>
	<path class="st0" d="M2027.1,605.9c7,0,13,2.5,17.9,7.6c4.9,5.1,7.4,11.3,7.4,18.7c0,7.3-2.5,13.5-7.4,18.7
		c-4.9,5.1-10.9,7.6-17.9,7.6c-8.3,0-14.6-3.3-18.9-9.9v28.6h-8.7v-70h8.7v8.6C2012.6,609.2,2018.9,605.9,2027.1,605.9z M2026,650.1
		c5,0,9.2-1.7,12.6-5.2c3.4-3.4,5.1-7.7,5.1-12.8c0-5.1-1.7-9.3-5.1-12.8c-3.4-3.4-7.6-5.2-12.6-5.2c-5.1,0-9.3,1.7-12.7,5.2
		c-3.4,3.4-5.1,7.7-5.1,12.8c0,5.1,1.7,9.3,5.1,12.8C2016.7,648.4,2021,650.1,2026,650.1z"/>
	<path class="st0" d="M2068.9,636.2c0.9,4.5,2.9,7.9,6.1,10.4c3.2,2.5,7.2,3.7,12,3.7c6.6,0,11.4-2.4,14.4-7.3l7.4,4.2
		c-4.9,7.5-12.2,11.3-22,11.3c-7.9,0-14.4-2.5-19.3-7.5c-5-5-7.5-11.2-7.5-18.8c0-7.5,2.4-13.8,7.3-18.8c4.9-5,11.2-7.5,18.9-7.5
		c7.3,0,13.3,2.6,18,7.8c4.6,5.2,7,11.4,7,18.6c0,1.3-0.1,2.6-0.3,3.9H2068.9z M2086.2,614.1c-4.7,0-8.5,1.3-11.6,3.9
		c-3.1,2.6-5,6.2-5.7,10.6h33.4c-0.7-4.7-2.6-8.3-5.6-10.8C2093.7,615.3,2090.2,614.1,2086.2,614.1z"/>
	<path class="st0" d="M2121.1,657.2v-73h8.7v73H2121.1z"/>
	<path class="st0" d="M2143.1,657.2v-73h8.7v73H2143.1z"/>
	<path class="st0" d="M2169.5,598.1c-1.7,0-3.1-0.6-4.2-1.7c-1.1-1.1-1.7-2.5-1.7-4.1c0-1.6,0.6-3,1.7-4.1c1.1-1.2,2.5-1.8,4.2-1.8
		c1.6,0,3,0.6,4.1,1.8c1.1,1.2,1.7,2.5,1.7,4.1c0,1.6-0.6,3-1.7,4.1C2172.5,597.5,2171.1,598.1,2169.5,598.1z M2165.1,657.2v-50h8.7
		v50H2165.1z"/>
	<path class="st0" d="M2193.2,636.2c0.9,4.5,2.9,7.9,6.1,10.4c3.2,2.5,7.2,3.7,12,3.7c6.6,0,11.4-2.4,14.4-7.3l7.4,4.2
		c-4.9,7.5-12.2,11.3-22,11.3c-7.9,0-14.4-2.5-19.3-7.5c-5-5-7.5-11.2-7.5-18.8c0-7.5,2.4-13.8,7.3-18.8c4.9-5,11.2-7.5,18.9-7.5
		c7.3,0,13.3,2.6,18,7.8c4.6,5.2,7,11.4,7,18.6c0,1.3-0.1,2.6-0.3,3.9H2193.2z M2210.5,614.1c-4.7,0-8.5,1.3-11.6,3.9
		c-3.1,2.6-5,6.2-5.7,10.6h33.4c-0.7-4.7-2.6-8.3-5.6-10.8C2218,615.3,2214.5,614.1,2210.5,614.1z"/>
	<path class="st0" d="M2254.1,615.6c2.9-6.2,8.1-9.3,15.6-9.3v9.1c-4.3-0.2-7.9,0.9-11,3.4c-3.1,2.5-4.6,6.4-4.6,11.9v26.5h-8.7v-50
		h8.7V615.6z"/>
</g>
</svg>
